IKResults
version=1
nRows=11
nColumns=40
inDegrees=yes

Units are S.I. units (second, meters, Newtons, ...)
Angles are in degrees.

endheader
time	pelvis_tilt	pelvis_list	pelvis_rotation	pelvis_tx	pelvis_ty	pelvis_tz	hip_flexion_r	hip_adduction_r	hip_rotation_r	knee_angle_r	knee_angle_r_beta	ankle_angle_r	subtalar_angle_r	mtp_angle_r	hip_flexion_l	hip_adduction_l	hip_rotation_l	knee_angle_l	knee_angle_l_beta	ankle_angle_l	subtalar_angle_l	mtp_angle_l	lumbar_extension	lumbar_bending	lumbar_rotation	arm_flex_r	arm_add_r	arm_rot_r	elbow_flex_r	pro_sup_r	wrist_flex_r	wrist_dev_r	arm_flex_l	arm_add_l	arm_rot_l	elbow_flex_l	pro_sup_l	wrist_flex_l	wrist_dev_l
      0.70000000	     14.19388506	     -0.38478792	      1.33947567	     -0.15632680	      0.94423912	      1.45431582	    -20.58575838	      3.77179491	    -11.61101470	    -14.99347581	     -0.26168552	     13.56612971	      0.98334126	     -2.90890648	      8.81888507	     -0.30802665	      4.25274496	    -47.69214383	     -0.83238494	     11.09709372	     17.29386503	      8.40682185	    -24.12086930	      0.97688177	      3.68941852	      0.48179114	    -15.90942382	      0.57064096	     40.49637391	     89.95437384	      0.00000000	      0.00000000	     -3.16405151	      9.33161402	      9.92643865	     16.30569701	     89.95437384	      0.00000000	      0.00000000
      0.71000000	     14.62624405	     -0.13791636	      0.64276784	     -0.14294869	      0.94285450	      1.45531815	    -22.11818529	      3.36467745	    -10.94409182	    -14.74418911	     -0.25733465	     14.33230467	      0.90142656	     -3.02453740	      8.95987571	     -0.47124524	      5.45126285	    -44.87120017	     -0.78315018	     10.99503675	     17.27320590	      8.27221555	    -24.56271695	      0.43193206	      4.43046434	      0.56327133	    -16.27893590	      0.65824863	     42.09505900	     89.95437384	      0.00000000	      0.00000000	     -3.89519159	      9.29859830	     10.66179184	     16.00123906	     89.95437384	      0.00000000	      0.00000000
      0.72000000	     14.05710888	     -0.41322000	      0.79730838	     -0.13028705	      0.93950705	      1.45568659	    -22.21433655	      3.71237046	    -11.32688455	    -15.11053635	     -0.26372861	     14.56996261	      0.69354509	     -3.01058687	     10.79251844	      0.01545359	      6.19289378	    -42.98947700	     -0.75030792	     10.77984798	     16.70459930	      8.11765266	    -23.93591819	      0.68578266	      4.34182550	      1.00351732	    -16.33443441	      0.60158338	     43.10212280	     89.95437384	      0.00000000	      0.00000000	     -4.90579468	      9.39446955	     10.65932047	     15.92039177	     89.95437384	      0.00000000	      0.00000000
      0.73000000	     14.48033543	     -0.02976774	      0.01730380	     -0.11666073	      0.93789364	      1.45647458	    -23.67735449	      3.05789397	    -10.83100772	    -15.00132566	     -0.26182252	     15.24670663	      0.73275908	     -3.15703958	     10.61941605	     -0.20562413	      7.92177271	    -39.63308092	     -0.69172775	     10.06149676	     15.62649001	      7.53455065	    -24.35789789	     -0.00897784	      5.08371972	      1.04815507	    -16.65346540	      0.50861456	     44.62737179	     89.95437384	      0.00000000	      0.00000000	     -5.56312373	      9.29385712	     11.82765118	     15.58644623	     89.95437384	      0.00000000	      0.00000000
      0.74000000	     14.32181703	     -0.02914386	     -0.20804505	     -0.10346408	      0.93506073	      1.45692677	    -24.28706445	      2.96731564	    -10.80815275	    -15.28310779	     -0.26674055	     15.84862873	      0.72529254	     -3.27580584	     11.44909417	      0.01438609	      9.38964432	    -36.87816274	     -0.64364536	      9.31187794	     13.97867556	      6.88761656	    -24.14927778	     -0.14036780	      5.32473893	      1.29486778	    -16.83556007	      0.50943639	     45.78049057	     89.95437384	      0.00000000	      0.00000000	     -6.38306880	      9.28073295	     12.31349321	     15.37748388	     89.95437384	      0.00000000	      0.00000000
      0.75000000	     14.39654322	      0.08919375	     -0.75366099	     -0.08965262	      0.93257441	      1.45752402	    -25.16685128	      2.57192847	    -10.70604919	    -15.56172863	     -0.27160340	     16.01714342	      0.96397897	     -3.45277374	     11.77900120	      0.23960291	     11.88883334	    -33.88117076	     -0.59133798	      8.57490215	     11.53371754	      5.65432384	    -24.15596438	     -0.49728716	      5.79293570	      1.46450043	    -17.00648966	      0.39215132	     46.93273957	     89.95437384	      0.00000000	      0.00000000	     -7.17295518	      9.18267391	     13.44980070	     15.18089220	     89.95437384	      0.00000000	      0.00000000
      0.76000000	     14.33539540	      0.18132430	     -1.14481806	     -0.07598176	      0.92976894	      1.45795056	    -25.83163858	      2.25093121	    -10.64036920	    -15.98522189	     -0.27899475	     16.42823448	      1.10632185	     -3.67951762	     12.19069266	      0.38379161	     14.22878976	    -30.85375609	     -0.53849963	      7.55107028	      8.68462254	      4.49938172	    -24.02166414	     -0.77913292	      6.15971080	      1.61105521	    -17.15776919	      0.26758904	     48.00901418	     89.95437384	      0.00000000	      0.00000000	     -7.86933686	      9.10653518	     14.34518432	     14.91748986	     89.95437384	      0.00000000	      0.00000000
      0.77000000	     14.40393167	      0.27216153	     -1.63926176	     -0.06191948	      0.92712485	      1.45839848	    -26.65352762	      1.83650381	    -10.51915093	    -16.42175268	     -0.28661365	     16.59866007	      1.48512642	     -3.96228662	     12.26524575	      0.50329055	     16.84990555	    -27.72851659	     -0.48395391	      6.39247136	      5.32765661	      3.17621742	    -24.00366092	     -1.09438022	      6.56904113	      1.72537815	    -17.32116976	      0.17146012	     49.07459903	     89.95437384	      0.00000000	      0.00000000	     -8.62567233	      9.00574685	     15.19898904	     14.76923001	     89.95437384	      0.00000000	      0.00000000
      0.78000000	     14.38830128	      0.26177382	     -2.08125547	     -0.04776931	      0.92431315	      1.45871515	    -27.29875226	      1.51343901	    -10.30639196	    -17.01767340	     -0.29701443	     16.52593145	      1.91539028	     -6.50356044	     12.49373774	      0.81289711	     19.75454164	    -24.97259808	     -0.43585406	      4.65885317	      1.77678796	     -5.94598142	    -23.89690023	     -1.28952400	      6.98116328	      1.80494804	    -17.52446151	      0.12898824	     50.04462336	     89.95437384	      0.00000000	      0.00000000	     -9.24950750	      8.86878180	     16.19898157	     14.50532336	     89.95437384	      0.00000000	      0.00000000
      0.79000000	     13.89860544	      0.09906036	     -2.08064856	     -0.03402226	      0.92090638	      1.45837511	    -27.38630386	      1.58339102	    -10.09289170	    -17.65513286	     -0.30814020	     16.60374303	      1.83956472	     -6.50266161	     13.30452597	      0.73432817	     20.34091865	    -22.50633952	     -0.39280973	      4.54616902	      0.34577016	     -6.01276512	    -23.34795726	     -1.14690813	      7.11693825	      1.80926917	    -17.73125474	      0.09518162	     50.98101800	     89.95437384	      0.00000000	      0.00000000	     -9.89649274	      8.79739179	     16.46493758	     14.43591461	     89.95437384	      0.00000000	      0.00000000
      0.80000000	     14.45686752	      0.81451340	     -3.11186134	     -0.01903157	      0.91916180	      1.45851985	    -28.35896509	      0.00702538	    -10.00141329	    -18.89285488	     -0.32974252	     16.81490219	      3.27635782	     -7.04610913	     12.46619383	      0.19362380	     24.03826943	    -19.84954328	     -0.34643989	      3.40245047	     -5.08958357	     -6.88485606	    -23.78752661	     -2.27326443	      7.65845174	      1.84066428	    -17.87993949	      0.05092760	     51.88681911	     89.95437384	      0.00000000	      0.00000000	    -10.28166464	      8.57950188	     18.23756928	     13.89220868	     89.95437384	      0.00000000	      0.00000000
